<svg width="148" height="56" viewBox="0 0 148 56" fill="none" xmlns="http://www.w3.org/2000/svg">
<g id="Group">
<path id="Vector" d="M70.6157 46.9979C73.2645 44.3052 76.1261 41.8645 79.1739 39.7053V51.4475C79.1739 52.7133 78.7536 53.7986 77.9124 54.6919C77.0931 55.5676 76.0881 55.9994 74.898 55.9994C73.7239 55.9994 72.7189 55.5676 71.8777 54.6919C71.0366 53.7986 70.6163 52.7133 70.6163 51.4475V46.9979H70.6157Z" fill="#FEE600"/>
<path id="Vector_2" d="M114.269 46.2548C114.269 49.3672 113.008 51.832 110.479 53.649C108.283 55.2197 105.64 56 102.549 56C99.9545 56 97.5512 55.4539 95.356 54.3567C92.9913 53.1635 91.298 51.5321 90.266 49.4689C89.403 47.7239 89.8457 46.2548 91.5987 45.0609C93.3794 43.8677 95.1922 44.0413 97.0384 45.583C99.3543 47.5263 101.075 48.4853 102.2 48.4619C104.494 48.4076 105.64 47.6765 105.64 46.2548C105.64 45.2592 104.832 44.3898 103.215 43.6461C102.653 43.3702 101.823 43.0343 100.724 42.6385C99.2278 42.1107 98.2774 41.7748 97.8847 41.6252C93.1005 39.7602 90.5282 37.0676 90.1677 33.541C97.1476 30.5547 104.739 28.9114 112.68 28.9114C112.8 28.9114 112.926 28.9114 113.046 28.9171C113.247 29.5168 113.236 30.0926 113.007 30.6501C112.679 31.4714 111.98 32.1072 110.904 32.551C109.872 33.0005 108.807 33.1628 107.709 33.0365C106.541 32.8926 105.672 32.4544 105.11 31.7353C104.126 30.6621 102.815 30.2902 101.183 30.6141C99.5658 30.914 98.7575 31.5977 98.7575 32.6653C98.7575 33.7386 99.5658 34.5845 101.183 35.2083C101.718 35.4299 102.537 35.6938 103.635 35.988C105.016 36.3655 105.978 36.6358 106.513 36.8094C111.686 38.5064 114.269 41.6549 114.269 46.2548Z" fill="#FEE600"/>
<path id="Vector_3" d="M147.999 41.0493V51.4127C147.999 52.6779 147.579 53.7638 146.738 54.6571C145.891 55.5328 144.886 55.9646 143.718 55.9646C142.642 55.9646 141.702 55.6047 140.911 54.885C140.113 54.1596 139.633 53.2537 139.469 52.1564C137.716 54.0757 135.624 55.2689 133.188 55.7424C130.823 56.2399 128.535 55.9646 126.312 54.921C123.991 53.8238 122.145 52.0604 120.763 49.6197C119.245 46.9271 118.486 43.6946 118.486 39.9104V29.2112C121.403 29.5048 124.264 30.0269 127.049 30.758V39.9098C127.049 42.1226 127.688 43.8796 128.977 45.1751C130.124 46.369 131.538 46.9681 133.226 46.9681C134.908 46.9681 136.323 46.3803 137.47 45.2111C138.78 43.8916 139.436 42.1226 139.436 39.9098V35.5681C142.429 37.1452 145.296 38.9805 147.999 41.0493Z" fill="#FEE600"/>
<path id="Vector_4" d="M41.5172 29.1208C40.1408 26.6081 38.3004 24.8991 36.0121 24.0051C33.833 23.1591 31.6597 23.2078 29.4806 24.1548C27.236 25.1744 25.4445 26.9913 24.1117 29.6063C22.3587 26.0917 19.8789 24.0771 16.6736 23.5556C13.5384 23.0335 10.7861 24.0771 8.42649 26.6921C8.21376 25.8227 7.7216 25.0607 6.95231 24.4136C6.1767 23.7419 5.29185 23.406 4.28166 23.406C3.09094 23.406 2.0865 23.8555 1.26719 24.7495C0.42604 25.6491 0 26.6561 0 27.778V51.448C0 52.7132 0.42604 53.7991 1.26719 54.6924C2.0865 55.5681 3.09094 55.9999 4.28166 55.9999C5.45572 55.9999 6.46073 55.5681 7.30189 54.6924C8.14304 53.7991 8.5639 52.7138 8.5639 51.448V39.4242C8.59093 36.0895 9.53615 33.9247 11.4093 32.929C11.9446 32.6292 12.5069 32.4795 13.0916 32.4795C13.7034 32.4795 14.2766 32.6292 14.8119 32.929C16.7069 33.9247 17.6573 36.1135 17.6573 39.4962V51.448C17.6573 52.7132 18.0667 53.7991 18.886 54.6924C19.7272 55.5681 20.7316 55.9999 21.9005 55.9999C23.0964 55.9999 24.1123 55.5681 24.9535 54.6924C25.7728 53.7991 26.1821 52.7138 26.1821 51.448V39.4956C26.1821 36.1129 27.1325 33.9247 29.0276 32.9284C29.5629 32.6285 30.1361 32.4789 30.7484 32.4789C31.3326 32.4789 31.8949 32.6285 32.4307 32.9284C34.3258 33.924 35.2761 36.1129 35.2761 39.4956V51.4473C35.2761 52.7125 35.6964 53.7984 36.5376 54.6918C37.3787 55.5674 38.3832 55.9993 39.5578 55.9993C40.7485 55.9993 41.753 55.5674 42.5723 54.6918C43.4134 53.7984 43.8395 52.7132 43.8395 51.4473V39.4956C43.8383 35.3938 43.0627 31.9341 41.5172 29.1208Z" fill="#3FC6EE"/>
<path id="Vector_5" d="M57.4537 24.7912C56.6125 23.8915 55.6023 23.442 54.4335 23.442C53.2427 23.442 52.2326 23.8915 51.419 24.7912C50.5727 25.6845 50.1518 26.7527 50.1518 27.9996V51.448C50.1518 52.7132 50.5721 53.7991 51.419 54.6924C52.2326 55.5681 53.2427 55.9999 54.4335 55.9999C55.6023 55.9999 56.6125 55.5681 57.4537 54.6924C58.2948 53.7991 58.7151 52.7138 58.7151 51.448V27.9996C58.7151 26.7521 58.2948 25.6845 57.4537 24.7912ZM57.9941 6.68007C57.0277 5.63647 55.8369 5.11499 54.4329 5.11499C53.0513 5.11499 51.8715 5.63647 50.8883 6.68007C49.9052 7.72366 49.4136 8.98318 49.4136 10.4523C49.4136 11.922 49.9052 13.1696 50.8883 14.2068C51.8715 15.2384 53.0507 15.7542 54.4329 15.7542C55.8369 15.7542 57.0271 15.2384 57.9941 14.2068C58.9664 13.1696 59.4522 11.922 59.4522 10.4523C59.4522 8.98318 58.9664 7.72366 57.9941 6.68007Z" fill="#3FC6EE"/>
<path id="Vector_6" d="M85.6351 24.7912C84.794 23.8916 83.7729 23.4421 82.5821 23.4421H79.1744V4.55129C79.1744 3.2861 78.7535 2.2122 77.9124 1.34285C77.0931 0.443197 76.0886 0 74.8979 0C73.7239 0 72.7188 0.443197 71.8777 1.34285C71.0365 2.21283 70.6162 3.2861 70.6162 4.55129V23.4414H67.2079C66.0172 23.4414 65.007 23.891 64.1935 24.7906C63.3471 25.6839 62.9263 26.7522 62.9263 27.999C62.9263 29.2706 63.3466 30.3381 64.1935 31.2069C65.007 32.1065 66.0172 32.5503 67.2079 32.5503H70.6162V46.9972C73.265 44.3045 76.1266 41.8644 79.1744 39.7052V32.551H82.5821C83.7729 32.551 84.794 32.1071 85.6351 31.2075C86.4544 30.3381 86.8638 29.2706 86.8638 27.9997C86.8638 26.7522 86.4539 25.6846 85.6351 24.7912Z" fill="#3FC6EE"/>
<path id="Vector_7" d="M112.374 27.6998C111.347 26.3323 110.026 25.2773 108.409 24.5273C106.869 23.8316 104.854 23.4717 102.374 23.4414C98.5344 23.4414 95.6016 24.2274 93.5645 25.7988C91.2711 27.5621 90.124 29.8526 90.124 32.6652C90.124 32.9651 90.1401 33.253 90.1677 33.5402C97.1476 30.554 104.739 28.9107 112.68 28.9107C112.8 28.9107 112.926 28.9107 113.046 28.9163C112.915 28.5211 112.691 28.119 112.374 27.6998Z" fill="#3FC6EE"/>
<path id="Vector_8" d="M146.738 24.7495C145.891 23.8555 144.886 23.406 143.718 23.406C142.522 23.406 141.517 23.8555 140.697 24.7495C139.856 25.6491 139.436 26.7167 139.436 27.9636V35.568C142.429 37.1451 145.296 38.9804 148 41.0493V27.9636C147.999 26.7161 147.579 25.6485 146.738 24.7495ZM125.782 24.7495C124.941 23.8795 123.936 23.442 122.768 23.442C121.572 23.442 120.567 23.8795 119.747 24.7495C118.906 25.6491 118.486 26.7281 118.486 27.9996V29.2105C121.402 29.5047 124.264 30.0262 127.05 30.7579V27.9996C127.049 26.7281 126.623 25.6485 125.782 24.7495Z" fill="#3FC6EE"/>
</g>
</svg>
